<?xml version="1.0" encoding="UTF-8" standalone="no"?>
<!-- Created with Inkscape (http://www.inkscape.org/) -->

<svg
   xmlns:dc="http://purl.org/dc/elements/1.1/"
   xmlns:cc="http://creativecommons.org/ns#"
   xmlns:rdf="http://www.w3.org/1999/02/22-rdf-syntax-ns#"
   xmlns:svg="http://www.w3.org/2000/svg"
   xmlns="http://www.w3.org/2000/svg"
   xmlns:sodipodi="http://sodipodi.sourceforge.net/DTD/sodipodi-0.dtd"
   xmlns:inkscape="http://www.inkscape.org/namespaces/inkscape"
   width="910.33594"
   height="93.86718"
   id="svg2"
   version="1.1"
   inkscape:version="0.48.0 r9654"
   sodipodi:docname="New document 1">
  <defs
     id="defs4" />
  <sodipodi:namedview
     id="base"
     pagecolor="#ffffff"
     bordercolor="#666666"
     borderopacity="1.0"
     inkscape:pageopacity="0.0"
     inkscape:pageshadow="2"
     inkscape:zoom="1"
     inkscape:cx="306.72879"
     inkscape:cy="111.91518"
     inkscape:document-units="px"
     inkscape:current-layer="layer1"
     showgrid="false"
     fit-margin-top="0"
     fit-margin-left="0"
     fit-margin-right="0"
     fit-margin-bottom="0"
     inkscape:window-width="1024"
     inkscape:window-height="599"
     inkscape:window-x="-2"
     inkscape:window-y="-22"
     inkscape:window-maximized="1" />
  <metadata
     id="metadata7">
    <rdf:RDF>
      <cc:Work
         rdf:about="">
        <dc:format>image/svg+xml</dc:format>
        <dc:type
           rdf:resource="http://purl.org/dc/dcmitype/StillImage" />
        <dc:title></dc:title>
      </cc:Work>
    </rdf:RDF>
  </metadata>
  <g
     inkscape:label="Layer 1"
     inkscape:groupmode="layer"
     id="layer1"
     transform="translate(-28.271206,-116.12447)">
    <g
       style="font-size:144px;font-style:normal;font-variant:normal;font-weight:normal;font-stretch:normal;line-height:125%;letter-spacing:0px;word-spacing:0px;fill:#000000;fill-opacity:1;stroke:none;font-family:Sony Sketch EF;-inkscape-font-specification:Sony Sketch EF"
       id="text2985">
      <path
         d="m 90.357143,126.60103 -35.859375,0 c -5.8594,6e-5 -9.515647,1.07818 -10.96875,3.23437 -0.843769,1.31256 -1.265644,4.28912 -1.265625,8.92969 -1.9e-5,2.43755 1.101542,4.33598 3.304688,5.69531 1.8281,1.07817 4.80466,1.61723 8.929687,1.61719 l 14.835938,0 c 6.328072,4e-5 11.390567,1.26567 15.1875,3.79688 3.796809,2.53128 5.695245,6.09378 5.695312,10.6875 l 0,11.10937 c -6.7e-5,4.82814 -1.945378,8.53126 -5.835937,11.10938 -3.890683,2.57812 -9.21099,3.86718 -15.960938,3.86718 l -40.007812,0 0,-10.26562 35.859375,0 c 5.953078,1e-5 9.656199,-1.17187 11.109375,-3.51563 0.656197,-1.21873 0.984321,-4.38279 0.984375,-9.49218 -5.4e-5,-4.78123 -3.890675,-7.17185 -11.671875,-7.17188 l -14.835938,0 c -6.140645,3e-5 -11.179703,-1.17184 -15.117187,-3.51562 -4.312508,-2.57809 -6.468756,-6.09371 -6.46875,-10.54688 l 0,-10.96875 c -6e-6,-4.92181 2.343742,-8.83587 7.03125,-11.74219 3.281234,-2.06243 8.039042,-3.09368 14.273437,-3.09375 l 40.78125,0 0,10.26563"
         id="path2990"
         inkscape:connector-curvature="0" />
      <path
         d="m 182.11496,186.36665 0,-32.27343 c -9e-5,-4.40622 -1.73446,-7.19528 -5.20313,-8.36719 -1.31258,-0.37496 -5.15632,-0.56246 -11.53125,-0.5625 -2.76569,4e-5 -5.01569,0.9141 -6.75,2.74219 -1.12506,1.17191 -1.68756,3.32816 -1.6875,6.46875 l 0,31.99218 -12.23437,0 0,-31.99218 c -5e-5,-4.49997 -1.50005,-7.3359 -4.5,-8.50782 -1.54692,-0.46871 -5.34379,-0.70308 -11.39063,-0.70312 -6.4219,4e-5 -9.63283,2.9766 -9.63281,8.92969 l 0.14062,32.27343 -12.375,0 0,-35.01562 c 0,-11.5312 5.99999,-17.29682 18,-17.29688 l 11.25,0 c 3.65621,6e-5 6.53902,0.49224 8.64844,1.47657 2.10933,0.93755 4.12495,2.71879 6.04688,5.34375 3.42182,-4.54683 8.36712,-6.82026 14.83593,-6.82032 l 11.03907,0 c 5.48429,6e-5 9.79678,1.54693 12.9375,4.64063 3.1874,3.09379 4.78115,7.31254 4.78125,12.65625 l 0,35.01562 -12.375,0"
         id="path2992"
         inkscape:connector-curvature="0" />
      <path
         d="m 269.93527,173.42915 c -7e-5,3.93751 -1.57038,7.12501 -4.71094,9.5625 -3.09381,2.4375 -7.33599,3.65625 -12.72656,3.65625 l -23.625,0 c -5.62502,0 -10.12502,-1.05468 -13.5,-3.16406 -3.65626,-2.29687 -5.48438,-5.5078 -5.48438,-9.63281 l 0,-9.35156 c 0,-4.2656 1.61718,-7.54685 4.85157,-9.84375 3.28123,-2.29684 7.75779,-3.44528 13.42968,-3.44532 l 29.53125,0 c -0.0938,-2.95308 -0.67974,-5.06246 -1.75781,-6.32812 -1.31255,-1.45308 -3.89067,-2.17965 -7.73437,-2.17969 l -38.03907,0 0,-9.07031 39.72657,0 c 13.35931,5e-5 20.03899,4.47661 20.03906,13.42969 l 0,26.36718 m -12.375,-1.75781 0,-10.19531 c -6e-5,-1.17185 -0.96099,-1.75779 -2.88281,-1.75781 l -23.625,0 c -5.8594,2e-5 -8.78909,2.20315 -8.78907,6.60937 l 0,5.20313 c -2e-5,1.92188 0.86717,3.39845 2.60157,4.42968 1.73435,0.98439 3.84372,1.47658 6.32812,1.47657 l 17.71875,0 c 5.76557,1e-5 8.64838,-1.92187 8.64844,-5.76563"
         id="path2994"
         inkscape:connector-curvature="0" />
      <path
         d="m 316.20089,142.14009 c -9.56253,5e-5 -15.11721,0.18755 -16.66406,0.5625 -3.28127,0.98442 -4.92189,3.3516 -4.92187,7.10156 l 0,36.5625 -12.79688,0 0,-39.02343 c 0,-9.51558 6.67968,-14.27339 20.03906,-14.27344 l 14.34375,0 0,9.07031"
         id="path2996"
         inkscape:connector-curvature="0" />
      <path
         d="m 357.19308,143.40572 -15.67969,0 0,43.24218 -12.375,0 0,-70.52343 12.375,0 0,18.42187 15.67969,0 0,8.85938"
         id="path2998"
         inkscape:connector-curvature="0" />
      <path
         d="m 383.98214,116.40572 0,17.50781 29.53125,0 c 5.76557,5e-5 10.31244,1.28911 13.64063,3.86719 3.37493,2.53129 5.06243,5.88285 5.0625,10.05468 l 0,24.67969 c -7e-5,9.42188 -6.28131,14.13281 -18.84375,14.13281 l -21.72656,0 c -5.57815,0 -10.31252,-1.14843 -14.20313,-3.44531 -3.89063,-2.29687 -5.83594,-5.95311 -5.83594,-10.96875 l 0,-55.82812 12.375,0 m 35.85938,53.92968 0,-20.10937 c -6e-5,-4.92184 -3.35162,-7.38277 -10.05469,-7.38281 l -22.78125,0 c -2.01565,4e-5 -3.02346,0.75004 -3.02344,2.25 l 0,25.73437 c -2e-5,4.50001 3.60935,6.75001 10.82813,6.75 l 14.97656,0 c 3.74995,1e-5 6.4687,-0.70311 8.15625,-2.10937 1.26557,-0.84374 1.89838,-2.55468 1.89844,-5.13282"
         id="path3000"
         inkscape:connector-curvature="0" />
      <path
         d="m 506.04464,173.56978 c -6e-5,4.50001 -2.01569,7.94532 -6.04687,10.33594 -2.85943,1.82812 -7.17193,2.74218 -12.9375,2.74218 l -21.44531,0 c -6.56252,0 -11.48439,-1.17187 -14.76563,-3.51562 -3.23438,-2.34375 -4.85157,-5.53124 -4.85156,-9.5625 l 0,-26.36719 c -10e-6,-4.59371 2.06249,-8.1562 6.1875,-10.6875 2.99998,-1.82807 7.47654,-2.74213 13.42969,-2.74219 l 21.44531,0 c 5.95307,6e-5 10.31244,0.91412 13.07812,2.74219 3.93744,2.39067 5.90619,5.95317 5.90625,10.6875 l 0,26.36719 m -12.375,-2.46094 0,-21.44531 c -5e-5,-2.43746 -0.96099,-4.21871 -2.88281,-5.34375 -1.54692,-1.07808 -3.93755,-1.61715 -7.17187,-1.61719 l -14.69532,0 c -3.37502,4e-5 -5.88283,0.53911 -7.52343,1.61719 -2.01565,1.12504 -3.02346,2.90629 -3.02344,5.34375 l 0,21.30469 c -2e-5,2.29688 1.00779,4.00782 3.02344,5.13281 1.54685,0.98438 3.74997,1.47657 6.60937,1.47656 l 16.45313,0 c 2.76557,1e-5 4.87495,-0.49218 6.32812,-1.47656 1.92182,-1.12499 2.88276,-2.78905 2.88281,-4.99219"
         id="path3002"
         inkscape:connector-curvature="0" />
      <path
         d="m 563.98214,186.50728 -22.78125,0 c -5.81252,0 -10.35939,-1.45312 -13.64062,-4.35938 -3.75001,-3.28124 -5.62501,-7.54686 -5.625,-12.79687 l 0.0703,-35.57813 12.30469,0 0,32.41407 c -2e-5,6.00001 3.21091,9.00001 9.63281,9 l 22.21875,0 c 2.10932,1e-5 3.16401,-1.14843 3.16406,-3.44532 l 0,-37.82812 12.375,0 0,58.21875 c -6e-5,5.24999 -1.64069,9.53905 -4.92187,12.86719 -3.23444,3.3281 -7.68756,4.99216 -13.35938,4.99218 l -38.88281,0 0,-11.74218 35.4375,0 c 4.12495,-2e-5 6.8437,-1.10158 8.15625,-3.30469 0.79682,-1.45313 1.19526,-4.26563 1.19531,-8.4375 l 0,-1.47656 -5.34375,1.47656"
         id="path3004"
         inkscape:connector-curvature="0" />
      <path
         d="m 605.11496,116.19478 -1.47657,17.4375 -5.48437,0 -1.40625,-17.4375 8.36719,0"
         id="path3006"
         inkscape:connector-curvature="0" />
      <path
         d="m 674.72433,142.84322 -32.69531,0 c -2.95315,4e-5 -5.15627,0.3516 -6.60938,1.05468 -2.01564,0.93755 -3.02345,2.22661 -3.02343,3.86719 l 0,2.17969 c -2e-5,3.65628 3.30466,5.4844 9.91406,5.48437 l 16.17187,0 c 4.68745,3e-5 8.5312,1.14847 11.53125,3.44532 3.04682,2.2969 4.57026,5.22658 4.57032,8.78906 l 0,6.46875 c -6e-5,3.37501 -1.5235,6.35157 -4.57032,8.92969 -1.82818,1.64062 -3.75005,2.64843 -5.76562,3.02343 -1.64067,0.375 -4.05473,0.5625 -7.24219,0.5625 l -36.98437,0 0,-9.07031 33.67968,0 c 3.46871,1e-5 5.78902,-0.67968 6.96094,-2.03906 0.8437,-1.03124 1.26558,-2.90624 1.26563,-5.625 -5e-5,-3.60936 -2.69536,-5.41404 -8.08594,-5.41406 l -15.25781,0 c -5.15627,2e-5 -9.42189,-1.00779 -12.79688,-3.02344 -3.75001,-2.24997 -5.625,-5.17966 -5.625,-8.78906 l 0,-7.10157 c 0,-3.93745 2.15624,-7.10151 6.46875,-9.49218 2.62499,-1.54683 6.65623,-2.32026 12.09375,-2.32032 l 36,0 0,9.07032"
         id="path3008"
         inkscape:connector-curvature="0" />
      <path
         d="m 791.79464,126.60103 -35.85937,0 c -5.8594,6e-5 -9.51565,1.07818 -10.96875,3.23437 -0.84377,1.31256 -1.26565,4.28912 -1.26563,8.92969 -2e-5,2.43755 1.10155,4.33598 3.30469,5.69531 1.8281,1.07817 4.80466,1.61723 8.92969,1.61719 l 14.83594,0 c 6.32807,4e-5 11.39056,1.26567 15.1875,3.79688 3.79681,2.53128 5.69524,6.09378 5.69531,10.6875 l 0,11.10937 c -7e-5,4.82814 -1.94538,8.53126 -5.83594,11.10938 -3.89068,2.57812 -9.21099,3.86718 -15.96094,3.86718 l -40.00781,0 0,-10.26562 35.85938,0 c 5.95307,1e-5 9.65619,-1.17187 11.10937,-3.51563 0.6562,-1.21873 0.98432,-4.38279 0.98438,-9.49218 -6e-5,-4.78123 -3.89068,-7.17185 -11.67188,-7.17188 l -14.83594,0 c -6.14064,3e-5 -11.1797,-1.17184 -15.11718,-3.51562 -4.31251,-2.57809 -6.46876,-6.09371 -6.46875,-10.54688 l 0,-10.96875 c -10e-6,-4.92181 2.34374,-8.83587 7.03125,-11.74219 3.28123,-2.06243 8.03904,-3.09368 14.27343,-3.09375 l 40.78125,0 0,10.26563"
         id="path3010"
         inkscape:connector-curvature="0" />
      <path
         d="m 818.86496,186.6479 -12.375,0 0,-52.875 12.375,0 0,52.875 m 0,-70.17187 0,9.21094 -11.8125,0 0,-9.21094 11.8125,0"
         id="path3012"
         inkscape:connector-curvature="0" />
      <path
         d="m 864.28683,143.40572 -15.67969,0 0,43.24218 -12.375,0 0,-70.52343 12.375,0 0,18.42187 15.67969,0 0,8.85938"
         id="path3014"
         inkscape:connector-curvature="0" />
      <path
         d="m 938.60714,154.65572 -47.39062,13.99218 0,1.75782 c -2e-5,2.76563 1.05466,4.78126 3.16406,6.04687 1.4531,0.75001 3.96091,1.12501 7.52344,1.125 l 36.5625,0 0,9.07031 -38.88281,0 c -6.70315,0 -11.64846,-1.00781 -14.83594,-3.02343 -4.03126,-2.39062 -6.04688,-6.18749 -6.04688,-11.39063 l 0,-25.03125 c 0,-8.95308 6.58593,-13.42963 19.75782,-13.42969 l 21.72656,0 c 12.28119,6e-5 18.42181,4.75786 18.42187,14.27344 l 0,6.60938 m -12.65625,-5.13282 0,-0.77343 c -5e-5,-4.03121 -3.2813,-6.04684 -9.84375,-6.04688 l -13.64062,0 c -7.59378,4e-5 -11.39065,2.27348 -11.39063,6.82031 l 0,10.33594 34.875,-10.33594"
         id="path3016"
         inkscape:connector-curvature="0" />
    </g>
  </g>
</svg>
